<?xml version="1.0" encoding="UTF-8"?>
<!DOCTYPE svg PUBLIC "-//W3C//DTD SVG 1.1//EN" "http://www.w3.org/Graphics/SVG/1.1/DTD/svg11.dtd">
<svg version="1.2" width="143.69mm" height="140.75mm" viewBox="323 324 14369 14075" preserveAspectRatio="xMidYMid" fill-rule="evenodd" stroke-width="28.222" stroke-linejoin="round" xmlns="http://www.w3.org/2000/svg" xmlns:ooo="http://xml.openoffice.org/svg/export" xmlns:xlink="http://www.w3.org/1999/xlink" xmlns:presentation="http://sun.com/xmlns/staroffice/presentation" xmlns:smil="http://www.w3.org/2001/SMIL20/" xmlns:anim="urn:oasis:names:tc:opendocument:xmlns:animation:1.0" xml:space="preserve">
 <defs class="ClipPathGroup">
  <clipPath id="presentation_clip_path" clipPathUnits="userSpaceOnUse">
   <rect x="323" y="324" width="14369" height="14075"/>
  </clipPath>
  <clipPath id="presentation_clip_path_shrink" clipPathUnits="userSpaceOnUse">
   <rect x="337" y="338" width="14341" height="14047"/>
  </clipPath>
 </defs>
 <defs class="TextShapeIndex">
  <g ooo:slide="id1" ooo:id-list="id3 id4 id5 id6 id7 id8 id9 id10 id11 id12 id13 id14 id15 id16 id17 id18 id19 id20 id21 id22 id23 id24 id25 id26 id27 id28 id29 id30 id31 id32 id33 id34 id35 id36 id37 id38 id39 id40 id41"/>
 </defs>
 <defs class="EmbeddedBulletChars">
  <g id="bullet-char-template-57356" transform="scale(0.00048828125,-0.00048828125)">
   <path d="M 580,1141 L 1163,571 580,0 -4,571 580,1141 Z"/>
  </g>
  <g id="bullet-char-template-57354" transform="scale(0.00048828125,-0.00048828125)">
   <path d="M 8,1128 L 1137,1128 1137,0 8,0 8,1128 Z"/>
  </g>
  <g id="bullet-char-template-10146" transform="scale(0.00048828125,-0.00048828125)">
   <path d="M 174,0 L 602,739 174,1481 1456,739 174,0 Z M 1358,739 L 309,1346 659,739 1358,739 Z"/>
  </g>
  <g id="bullet-char-template-10132" transform="scale(0.00048828125,-0.00048828125)">
   <path d="M 2015,739 L 1276,0 717,0 1260,543 174,543 174,936 1260,936 717,1481 1274,1481 2015,739 Z"/>
  </g>
  <g id="bullet-char-template-10007" transform="scale(0.00048828125,-0.00048828125)">
   <path d="M 0,-2 C -7,14 -16,27 -25,37 L 356,567 C 262,823 215,952 215,954 215,979 228,992 255,992 264,992 276,990 289,987 310,991 331,999 354,1012 L 381,999 492,748 772,1049 836,1024 860,1049 C 881,1039 901,1025 922,1006 886,937 835,863 770,784 769,783 710,716 594,584 L 774,223 C 774,196 753,168 711,139 L 727,119 C 717,90 699,76 672,76 641,76 570,178 457,381 L 164,-76 C 142,-110 111,-127 72,-127 30,-127 9,-110 8,-76 1,-67 -2,-52 -2,-32 -2,-23 -1,-13 0,-2 Z"/>
  </g>
  <g id="bullet-char-template-10004" transform="scale(0.00048828125,-0.00048828125)">
   <path d="M 285,-33 C 182,-33 111,30 74,156 52,228 41,333 41,471 41,549 55,616 82,672 116,743 169,778 240,778 293,778 328,747 346,684 L 369,508 C 377,444 397,411 428,410 L 1163,1116 C 1174,1127 1196,1133 1229,1133 1271,1133 1292,1118 1292,1087 L 1292,965 C 1292,929 1282,901 1262,881 L 442,47 C 390,-6 338,-33 285,-33 Z"/>
  </g>
  <g id="bullet-char-template-9679" transform="scale(0.00048828125,-0.00048828125)">
   <path d="M 813,0 C 632,0 489,54 383,161 276,268 223,411 223,592 223,773 276,916 383,1023 489,1130 632,1184 813,1184 992,1184 1136,1130 1245,1023 1353,916 1407,772 1407,592 1407,412 1353,268 1245,161 1136,54 992,0 813,0 Z"/>
  </g>
  <g id="bullet-char-template-8226" transform="scale(0.00048828125,-0.00048828125)">
   <path d="M 346,457 C 273,457 209,483 155,535 101,586 74,649 74,723 74,796 101,859 155,911 209,963 273,989 346,989 419,989 480,963 531,910 582,859 608,796 608,723 608,648 583,586 532,535 482,483 420,457 346,457 Z"/>
  </g>
  <g id="bullet-char-template-8211" transform="scale(0.00048828125,-0.00048828125)">
   <path d="M -4,459 L 1135,459 1135,606 -4,606 -4,459 Z"/>
  </g>
  <g id="bullet-char-template-61548" transform="scale(0.00048828125,-0.00048828125)">
   <path d="M 173,740 C 173,903 231,1043 346,1159 462,1274 601,1332 765,1332 928,1332 1067,1274 1183,1159 1299,1043 1357,903 1357,740 1357,577 1299,437 1183,322 1067,206 928,148 765,148 601,148 462,206 346,322 231,437 173,577 173,740 Z"/>
  </g>
 </defs>
 <defs class="TextEmbeddedBitmaps"/>
 <g class="SlideGroup">
  <g>
   <g id="container-id1">
    <g id="id1" class="Slide" clip-path="url(#presentation_clip_path)">
     <g class="Page">
      <g class="com.sun.star.drawing.ClosedBezierShape">
       <g id="id3">
        <rect class="BoundingBox" stroke="none" fill="none" x="323" y="323" width="14371" height="14077"/>
        <path fill="rgb(196,10,52)" stroke="none" d="M 500,522 C 14500,522 9839,473 14500,522 14505,1473 14516,2374 14516,3374 13900,4222 13684,4570 13700,5422 13700,6422 13900,6822 14516,7574 14500,7622 13500,9822 11500,11722 9500,13622 8200,14222 7500,14222 6800,14222 5500,13622 3500,11722 1500,9822 500,7622 500,7606 1100,6822 1300,6422 1316,5374 1300,4422 1100,4206 516,3374 516,2374 500,522 500,522 Z"/>
        <path fill="none" stroke="rgb(0,0,0)" stroke-width="353" stroke-linejoin="round" d="M 500,522 C 14500,522 9839,473 14500,522 14505,1473 14516,2374 14516,3374 13900,4222 13684,4570 13700,5422 13700,6422 13900,6822 14516,7574 14500,7622 13500,9822 11500,11722 9500,13622 8200,14222 7500,14222 6800,14222 5500,13622 3500,11722 1500,9822 500,7622 500,7606 1100,6822 1300,6422 1316,5374 1300,4422 1100,4206 516,3374 516,2374 500,522 500,522 Z"/>
       </g>
      </g>
      <g class="com.sun.star.drawing.LineShape">
       <g id="id4">
        <rect class="BoundingBox" stroke="none" fill="none" x="520" y="642" width="13961" height="7061"/>
        <path fill="none" stroke="rgb(0,0,0)" stroke-width="159" stroke-linejoin="round" d="M 600,7622 L 14400,722"/>
       </g>
      </g>
      <g class="com.sun.star.drawing.LineShape">
       <g id="id5">
        <rect class="BoundingBox" stroke="none" fill="none" x="1620" y="3142" width="12861" height="6561"/>
        <path fill="none" stroke="rgb(0,0,0)" stroke-width="159" stroke-linejoin="round" d="M 1700,9622 L 14400,3222"/>
       </g>
      </g>
      <g class="com.sun.star.drawing.ClosedBezierShape">
       <g id="id6">
        <rect class="BoundingBox" stroke="none" fill="none" x="712" y="851" width="13644" height="8637"/>
        <path fill="rgb(255,255,255)" stroke="none" d="M 712,7654 C 5250,5383 9790,3122 14328,851 14330,1623 14352,2408 14354,3180 14357,3135 14346,3161 14346,3161 10171,5269 6009,7368 1807,9487 1406,8910 1056,8334 712,7654 Z"/>
       </g>
      </g>
      <g class="Group">
       <g class="com.sun.star.drawing.PolyPolygonShape">
        <g id="id7">
         <rect class="BoundingBox" stroke="none" fill="none" x="2176" y="1699" width="1513" height="2131"/>
         <path fill="rgb(0,0,0)" stroke="none" d="M 2176,1699 L 3688,1699 3688,2074 2619,2074 2619,2564 3555,2564 3555,2935 2619,2935 2619,3829 2176,3829 2176,1699 Z"/>
        </g>
       </g>
       <g class="com.sun.star.drawing.PolyPolygonShape">
        <g id="id8">
         <rect class="BoundingBox" stroke="none" fill="none" x="3893" y="1656" width="1898" height="2233"/>
         <path fill="rgb(0,0,0)" stroke="none" d="M 3893,2780 L 3894,2756 3898,2688 3909,2588 3930,2463 3966,2325 3990,2253 4019,2181 4054,2111 4094,2043 4140,1979 4192,1919 4204,1908 4239,1878 4296,1836 4373,1788 4419,1763 4469,1739 4523,1717 4582,1697 4645,1680 4711,1667 4781,1659 4855,1656 4879,1657 4943,1662 5039,1675 5155,1700 5219,1719 5284,1742 5349,1771 5414,1805 5477,1845 5537,1892 5592,1947 5642,2009 5648,2018 5664,2043 5686,2082 5712,2133 5739,2193 5762,2260 5772,2296 5780,2332 5786,2370 5790,2407 5344,2407 5336,2382 5327,2354 5314,2320 5298,2283 5279,2245 5257,2208 5245,2191 5233,2175 5227,2169 5210,2154 5182,2131 5142,2106 5118,2093 5091,2080 5062,2069 5029,2058 4994,2049 4956,2042 4916,2038 4872,2037 4862,2037 4832,2040 4788,2047 4733,2061 4703,2071 4672,2084 4640,2100 4608,2119 4577,2142 4546,2168 4517,2198 4489,2233 4483,2242 4467,2269 4445,2313 4419,2375 4393,2454 4371,2549 4355,2661 4349,2787 4349,2803 4351,2846 4357,2910 4367,2989 4385,3076 4397,3121 4411,3165 4428,3209 4448,3250 4471,3289 4497,3325 4504,3333 4524,3353 4556,3381 4600,3414 4626,3431 4654,3447 4685,3462 4719,3476 4754,3487 4792,3496 4832,3502 4874,3504 4884,3503 4912,3501 4955,3495 5006,3484 5035,3476 5064,3466 5094,3454 5124,3439 5153,3421 5181,3401 5207,3377 5231,3350 5234,3346 5243,3335 5255,3315 5271,3288 5289,3254 5308,3211 5326,3161 5344,3103 5785,3103 5782,3118 5773,3161 5755,3225 5727,3304 5688,3394 5636,3489 5605,3536 5571,3583 5532,3628 5490,3670 5479,3679 5447,3704 5395,3739 5324,3779 5236,3819 5186,3838 5132,3854 5074,3868 5013,3879 4948,3886 4880,3888 4859,3888 4804,3884 4720,3873 4617,3851 4560,3836 4501,3816 4441,3792 4380,3764 4321,3730 4263,3691 4208,3645 4156,3593 4145,3579 4115,3539 4073,3472 4025,3380 3976,3264 3954,3198 3934,3125 3917,3047 3904,2963 3896,2874 3893,2780 Z"/>
        </g>
       </g>
      </g>
      <g class="Group">
       <g class="com.sun.star.drawing.PolyPolygonShape">
        <g id="id9">
         <rect class="BoundingBox" stroke="none" fill="none" x="9952" y="6642" width="891" height="997"/>
         <path fill="rgb(0,0,0)" stroke="none" d="M 10396,6844 L 10393,6845 10382,6845 10367,6847 10348,6851 10338,6854 10327,6857 10316,6862 10305,6867 10294,6873 10283,6880 10273,6888 10264,6898 10262,6900 10257,6908 10249,6920 10239,6936 10229,6957 10220,6981 10211,7010 10208,7026 10205,7043 10587,7043 10586,7038 10585,7027 10582,7009 10577,6988 10570,6964 10565,6951 10559,6939 10553,6927 10546,6916 10537,6905 10528,6895 10525,6893 10518,6887 10507,6879 10492,6870 10472,6860 10462,6856 10450,6852 10438,6849 10425,6847 10411,6845 10396,6844 Z M 10396,6642 L 10416,6643 10438,6644 10467,6647 10499,6653 10535,6661 10571,6671 10590,6678 10607,6686 10612,6688 10623,6694 10640,6705 10662,6720 10687,6739 10712,6763 10738,6791 10751,6807 10763,6825 10765,6828 10771,6839 10781,6857 10792,6880 10804,6909 10816,6942 10826,6978 10834,7018 10835,7030 10839,7066 10841,7124 10842,7204 10199,7204 10200,7211 10201,7227 10205,7252 10212,7282 10217,7298 10223,7315 10230,7331 10239,7348 10249,7363 10260,7378 10273,7391 10288,7403 10290,7404 10297,7408 10308,7414 10322,7420 10340,7427 10361,7432 10372,7435 10384,7436 10397,7437 10410,7438 10414,7438 10423,7437 10437,7436 10454,7432 10474,7427 10484,7424 10494,7420 10504,7415 10515,7409 10524,7402 10533,7395 10535,7394 10538,7391 10543,7385 10549,7378 10556,7369 10564,7358 10571,7345 10579,7330 10830,7330 10829,7334 10827,7345 10823,7361 10815,7383 10804,7408 10789,7437 10769,7468 10756,7484 10743,7500 10737,7506 10720,7521 10693,7543 10655,7568 10633,7581 10607,7594 10580,7605 10549,7615 10517,7624 10482,7631 10445,7635 10405,7637 10397,7637 10375,7635 10341,7631 10298,7622 10249,7609 10223,7599 10196,7588 10169,7575 10142,7560 10115,7542 10089,7521 10083,7516 10068,7499 10046,7471 10033,7453 10020,7431 10008,7407 9995,7379 9984,7348 9973,7314 9965,7277 9958,7237 9954,7193 9952,7146 9952,7135 9954,7106 9959,7062 9967,7008 9982,6947 9992,6916 10004,6885 10018,6855 10035,6825 10054,6798 10076,6772 10081,6766 10098,6752 10125,6731 10162,6707 10184,6695 10208,6683 10235,6672 10263,6662 10294,6654 10326,6648 10360,6643 10396,6642 Z"/>
        </g>
       </g>
       <g class="com.sun.star.drawing.PolyPolygonShape">
        <g id="id10">
         <rect class="BoundingBox" stroke="none" fill="none" x="11002" y="7349" width="263" height="258"/>
         <path fill="rgb(0,0,0)" stroke="none" d="M 11003,7349 L 11264,7349 11264,7606 11003,7606 11003,7349 Z"/>
        </g>
       </g>
       <g class="com.sun.star.drawing.PolyPolygonShape">
        <g id="id11">
         <rect class="BoundingBox" stroke="none" fill="none" x="11424" y="6336" width="1115" height="1271"/>
         <path fill="rgb(0,0,0)" stroke="none" d="M 12261,6336 L 12537,6336 12104,7606 11853,7606 11424,6336 11707,6336 11983,7300 12261,6336 Z"/>
        </g>
       </g>
       <g class="com.sun.star.drawing.PolyPolygonShape">
        <g id="id12">
         <rect class="BoundingBox" stroke="none" fill="none" x="12508" y="7349" width="262" height="258"/>
         <path fill="rgb(0,0,0)" stroke="none" d="M 12508,7349 L 12769,7349 12769,7606 12508,7606 12508,7349 Z"/>
        </g>
       </g>
       <g class="com.sun.star.drawing.PolyPolygonShape">
        <g id="id13">
         <rect class="BoundingBox" stroke="none" fill="none" x="9560" y="8121" width="546" height="1251"/>
         <path fill="rgb(0,0,0)" stroke="none" d="M 9560,8510 L 9560,8343 9624,8339 9678,8334 9702,8331 9723,8327 9726,8326 9735,8324 9749,8319 9766,8313 9785,8304 9805,8292 9815,8286 9825,8278 9834,8270 9843,8262 9845,8260 9849,8255 9854,8248 9861,8238 9869,8225 9877,8210 9885,8192 9892,8172 9893,8166 9896,8153 9900,8137 9901,8129 9901,8125 9901,8122 10105,8122 10105,9371 9854,9371 9854,8510 9560,8510 Z"/>
        </g>
       </g>
       <g class="com.sun.star.drawing.PolyPolygonShape">
        <g id="id14">
         <rect class="BoundingBox" stroke="none" fill="none" x="10472" y="8112" width="869" height="1296"/>
         <path fill="rgb(0,0,0)" stroke="none" d="M 10472,8562 L 10472,8553 10474,8528 10478,8492 10486,8446 10500,8394 10510,8367 10521,8340 10534,8313 10550,8286 10567,8261 10588,8236 10593,8231 10609,8217 10634,8197 10669,8174 10690,8163 10712,8151 10737,8141 10764,8131 10792,8123 10823,8117 10855,8113 10889,8112 10901,8112 10935,8116 10985,8125 11014,8133 11045,8144 11077,8157 11110,8174 11142,8194 11174,8218 11204,8247 11233,8281 11258,8320 11280,8364 11283,8371 11289,8390 11299,8422 11310,8465 11321,8519 11331,8583 11338,8658 11340,8741 11339,8779 11333,8873 11326,8933 11316,8996 11302,9059 11293,9090 11283,9119 11277,9131 11261,9164 11232,9210 11213,9236 11191,9263 11165,9290 11135,9316 11102,9341 11065,9362 11024,9381 10980,9395 10931,9404 10878,9407 10871,9407 10854,9406 10827,9403 10793,9397 10754,9387 10712,9372 10690,9363 10668,9352 10647,9339 10625,9324 10620,9320 10608,9309 10589,9290 10567,9263 10556,9247 10545,9229 10534,9209 10524,9187 10515,9163 10507,9138 10501,9111 10497,9082 10742,9082 10742,9084 10744,9091 10746,9101 10751,9114 10757,9128 10761,9135 10765,9143 10770,9150 10775,9158 10781,9165 10788,9171 10790,9173 10795,9177 10803,9182 10815,9189 10829,9195 10838,9198 10847,9201 10856,9203 10867,9204 10877,9206 10889,9206 10894,9206 10909,9204 10919,9202 10930,9199 10942,9195 10956,9189 10970,9182 10984,9173 10998,9162 11012,9149 11025,9134 11038,9116 11049,9095 11059,9072 11061,9068 11064,9058 11068,9041 11074,9017 11079,8986 11085,8949 11090,8905 11093,8855 11087,8862 11071,8879 11061,8890 11049,8900 11035,8911 11022,8920 11018,8922 11009,8926 10994,8933 10974,8941 10950,8948 10921,8955 10888,8959 10852,8961 10845,8961 10827,8960 10799,8956 10763,8948 10722,8936 10700,8928 10677,8918 10655,8906 10632,8892 10609,8876 10587,8858 10582,8854 10569,8839 10551,8816 10530,8783 10519,8763 10509,8741 10499,8716 10490,8690 10483,8661 10477,8630 10473,8597 10472,8562 Z M 10905,8761 L 10908,8761 10914,8761 10924,8760 10936,8758 10951,8754 10967,8749 10975,8746 10984,8742 10992,8737 11001,8732 11004,8730 11014,8722 11020,8716 11027,8708 11035,8699 11043,8689 11050,8677 11058,8663 11065,8648 11071,8632 11077,8613 11081,8593 11083,8571 11084,8547 11084,8542 11084,8529 11082,8510 11078,8486 11072,8459 11068,8445 11064,8431 11058,8418 11051,8404 11044,8391 11035,8379 11033,8376 11026,8369 11015,8359 10999,8348 10990,8342 10980,8337 10969,8331 10957,8327 10944,8323 10930,8320 10915,8318 10899,8317 10896,8317 10889,8318 10877,8319 10862,8321 10845,8326 10836,8328 10827,8332 10818,8336 10809,8341 10800,8346 10792,8352 10789,8355 10781,8363 10775,8369 10769,8377 10763,8386 10756,8396 10750,8408 10743,8422 10737,8437 10732,8454 10727,8473 10724,8493 10722,8515 10721,8539 10722,8557 10723,8577 10727,8602 10732,8629 10736,8643 10740,8656 10745,8670 10751,8683 10758,8695 10766,8706 10768,8708 10775,8715 10785,8723 10792,8728 10800,8734 10810,8739 10820,8744 10831,8749 10844,8753 10858,8756 10872,8759 10888,8761 10905,8761 Z"/>
        </g>
       </g>
       <g class="com.sun.star.drawing.PolyPolygonShape">
        <g id="id15">
         <rect class="BoundingBox" stroke="none" fill="none" x="11455" y="8110" width="864" height="1295"/>
         <path fill="rgb(0,0,0)" stroke="none" d="M 11701,8976 L 11701,8980 11702,8992 11704,9011 11708,9034 11715,9060 11719,9074 11724,9088 11730,9101 11738,9115 11746,9128 11756,9140 11758,9143 11765,9150 11777,9160 11793,9172 11803,9178 11813,9184 11824,9189 11837,9194 11850,9198 11864,9201 11878,9203 11893,9204 11897,9204 11907,9203 11922,9201 11940,9196 11950,9193 11961,9189 11972,9184 11982,9178 11993,9171 12003,9163 12013,9153 12022,9142 12024,9139 12030,9131 12037,9118 12046,9099 12054,9076 12062,9049 12065,9034 12067,9018 12069,9001 12069,8983 12069,8978 12068,8965 12066,8945 12062,8921 12056,8894 12052,8880 12047,8866 12040,8852 12033,8839 12025,8826 12016,8815 12013,8812 12006,8806 11995,8797 11979,8786 11970,8781 11960,8775 11950,8770 11938,8766 11926,8762 11913,8759 11899,8758 11885,8757 11882,8757 11874,8757 11862,8759 11847,8762 11830,8766 11821,8769 11811,8773 11802,8777 11792,8782 11783,8788 11774,8795 11771,8797 11762,8805 11751,8819 11744,8828 11738,8838 11731,8850 11724,8864 11718,8878 11713,8895 11708,8913 11704,8932 11702,8953 11701,8976 Z M 12047,8436 L 12047,8435 12046,8431 12046,8425 12044,8417 12041,8407 12037,8396 12031,8383 12023,8370 12022,8368 12016,8361 12007,8352 12001,8346 11994,8341 11986,8335 11977,8330 11967,8325 11956,8321 11945,8317 11932,8314 11918,8312 11904,8312 11899,8312 11884,8314 11874,8316 11863,8319 11851,8323 11838,8328 11824,8335 11810,8344 11795,8355 11781,8368 11768,8384 11755,8402 11743,8422 11733,8446 11732,8449 11729,8460 11724,8477 11718,8501 11712,8532 11706,8569 11700,8614 11695,8665 11703,8656 11713,8646 11726,8634 11741,8622 11759,8608 11779,8596 11790,8590 11801,8585 11804,8584 11812,8582 11824,8578 11841,8573 11861,8568 11885,8564 11911,8562 11939,8560 11946,8561 11967,8562 11997,8566 12035,8575 12057,8581 12079,8588 12101,8597 12124,8608 12147,8621 12169,8636 12191,8653 12212,8673 12216,8678 12228,8694 12245,8718 12265,8752 12284,8793 12293,8817 12301,8843 12308,8870 12313,8899 12317,8930 12318,8962 12318,8970 12316,8991 12313,9024 12305,9066 12293,9114 12274,9166 12262,9192 12248,9219 12232,9245 12214,9270 12209,9276 12194,9291 12169,9312 12153,9325 12134,9337 12113,9349 12089,9361 12062,9373 12033,9383 12001,9391 11967,9398 11930,9402 11890,9404 11880,9403 11851,9401 11809,9393 11785,9387 11758,9379 11730,9369 11701,9356 11672,9340 11644,9321 11616,9298 11589,9272 11564,9241 11542,9206 11538,9199 11528,9179 11514,9145 11498,9099 11483,9042 11469,8974 11459,8896 11455,8809 11457,8726 11460,8650 11463,8612 11467,8576 11471,8549 11477,8520 11486,8483 11497,8441 11511,8397 11529,8353 11539,8331 11551,8311 11553,8307 11560,8296 11572,8279 11588,8259 11608,8235 11632,8211 11660,8187 11675,8176 11691,8165 11695,8163 11706,8157 11724,8148 11749,8138 11779,8127 11814,8119 11854,8112 11876,8111 11898,8110 11905,8110 11927,8111 11958,8115 11998,8121 12042,8132 12065,8139 12088,8148 12111,8158 12133,8170 12155,8183 12175,8199 12180,8203 12191,8215 12208,8235 12228,8262 12249,8296 12259,8316 12268,8337 12276,8360 12283,8384 12288,8409 12291,8436 12047,8436 Z"/>
        </g>
       </g>
       <g class="com.sun.star.drawing.PolyPolygonShape">
        <g id="id16">
         <rect class="BoundingBox" stroke="none" fill="none" x="12426" y="8138" width="886" height="1234"/>
         <path fill="rgb(0,0,0)" stroke="none" d="M 13311,8330 L 13301,8341 13272,8375 13224,8435 13158,8523 13142,8547 13101,8612 13047,8703 13020,8756 12994,8811 12985,8831 12962,8890 12931,8980 12899,9095 12892,9123 12878,9192 12863,9282 12858,9328 12857,9371 12602,9371 12603,9355 12607,9312 12616,9245 12633,9157 12660,9052 12699,8934 12753,8806 12822,8672 12845,8636 12901,8549 12975,8445 13013,8397 13049,8359 12426,8359 12429,8138 13311,8138 13311,8330 Z"/>
        </g>
       </g>
      </g>
      <g class="Group">
       <g class="com.sun.star.drawing.PolyPolygonShape">
        <g id="id17">
         <rect class="BoundingBox" stroke="none" fill="none" x="2176" y="1699" width="1514" height="2131"/>
         <path fill="rgb(0,0,0)" stroke="none" d="M 2177,1699 L 3689,1699 3689,2074 2620,2074 2620,2564 3556,2564 3556,2935 2620,2935 2620,3829 2177,3829 2177,1699 Z"/>
        </g>
       </g>
       <g class="com.sun.star.drawing.PolyPolygonShape">
        <g id="id18">
         <rect class="BoundingBox" stroke="none" fill="none" x="3894" y="1656" width="1899" height="2233"/>
         <path fill="rgb(0,0,0)" stroke="none" d="M 3894,2780 L 3895,2756 3899,2688 3910,2588 3931,2463 3967,2325 3991,2253 4020,2181 4055,2111 4095,2043 4141,1979 4193,1919 4205,1908 4240,1878 4297,1836 4374,1788 4420,1763 4470,1739 4524,1717 4583,1697 4646,1680 4712,1667 4782,1659 4856,1656 4880,1657 4944,1662 5040,1675 5156,1700 5220,1719 5285,1742 5350,1771 5415,1805 5478,1845 5538,1892 5593,1947 5643,2009 5649,2018 5665,2043 5687,2082 5713,2133 5740,2193 5763,2260 5773,2296 5781,2332 5787,2370 5791,2407 5345,2407 5337,2382 5328,2354 5315,2320 5299,2283 5280,2245 5258,2208 5246,2191 5234,2175 5228,2169 5211,2154 5183,2131 5143,2106 5119,2093 5092,2080 5063,2069 5030,2058 4995,2049 4957,2042 4917,2038 4873,2037 4863,2037 4833,2040 4789,2047 4734,2061 4704,2071 4673,2084 4641,2100 4609,2119 4578,2142 4547,2168 4518,2198 4490,2233 4484,2242 4468,2269 4446,2313 4420,2375 4394,2454 4372,2549 4356,2661 4350,2787 4350,2803 4352,2846 4358,2910 4368,2989 4386,3076 4398,3121 4412,3165 4429,3209 4449,3250 4472,3289 4498,3325 4505,3333 4525,3353 4557,3381 4601,3414 4627,3431 4655,3447 4686,3462 4720,3476 4755,3487 4793,3496 4833,3502 4875,3504 4885,3503 4913,3501 4956,3495 5007,3484 5036,3476 5065,3466 5095,3454 5125,3439 5154,3421 5182,3401 5208,3377 5232,3350 5235,3346 5244,3335 5256,3315 5272,3288 5290,3254 5309,3211 5327,3161 5345,3103 5786,3103 5783,3118 5774,3161 5756,3225 5728,3304 5689,3394 5637,3489 5606,3536 5572,3583 5533,3628 5491,3670 5480,3679 5448,3704 5396,3739 5325,3779 5237,3819 5187,3838 5133,3854 5075,3868 5014,3879 4949,3886 4881,3888 4860,3888 4805,3884 4721,3873 4618,3851 4561,3836 4502,3816 4442,3792 4381,3764 4322,3730 4264,3691 4209,3645 4157,3593 4146,3579 4116,3539 4074,3472 4026,3380 3977,3264 3955,3198 3935,3125 3918,3047 3905,2963 3897,2874 3894,2780 Z"/>
        </g>
       </g>
      </g>
      <g class="Group">
       <g class="com.sun.star.drawing.PolyPolygonShape">
        <g id="id19">
         <rect class="BoundingBox" stroke="none" fill="none" x="9953" y="6642" width="891" height="997"/>
         <path fill="rgb(0,0,0)" stroke="none" d="M 10397,6844 L 10394,6845 10383,6845 10368,6847 10349,6851 10339,6854 10328,6857 10317,6862 10306,6867 10295,6873 10284,6880 10274,6888 10265,6898 10263,6900 10258,6908 10250,6920 10240,6936 10230,6957 10221,6981 10212,7010 10209,7026 10206,7043 10588,7043 10587,7038 10586,7027 10583,7009 10578,6988 10571,6964 10566,6951 10560,6939 10554,6927 10547,6916 10538,6905 10529,6895 10526,6893 10519,6887 10508,6879 10493,6870 10473,6860 10463,6856 10451,6852 10439,6849 10426,6847 10412,6845 10397,6844 Z M 10397,6642 L 10417,6643 10439,6644 10468,6647 10500,6653 10536,6661 10572,6671 10591,6678 10608,6686 10613,6688 10624,6694 10641,6705 10663,6720 10688,6739 10713,6763 10739,6791 10752,6807 10764,6825 10766,6828 10772,6839 10782,6857 10793,6880 10805,6909 10817,6942 10827,6978 10835,7018 10836,7030 10840,7066 10842,7124 10843,7204 10200,7204 10201,7211 10202,7227 10206,7252 10213,7282 10218,7298 10224,7315 10231,7331 10240,7348 10250,7363 10261,7378 10274,7391 10289,7403 10291,7404 10298,7408 10309,7414 10323,7420 10341,7427 10362,7432 10373,7435 10385,7436 10398,7437 10411,7438 10415,7438 10424,7437 10438,7436 10455,7432 10475,7427 10485,7424 10495,7420 10505,7415 10516,7409 10525,7402 10534,7395 10536,7394 10539,7391 10544,7385 10550,7378 10557,7369 10565,7358 10572,7345 10580,7330 10831,7330 10830,7334 10828,7345 10824,7361 10816,7383 10805,7408 10790,7437 10770,7468 10757,7484 10744,7500 10738,7506 10721,7521 10694,7543 10656,7568 10634,7581 10608,7594 10581,7605 10550,7615 10518,7624 10483,7631 10446,7635 10406,7637 10398,7637 10376,7635 10342,7631 10299,7622 10250,7609 10224,7599 10197,7588 10170,7575 10143,7560 10116,7542 10090,7521 10084,7516 10069,7499 10047,7471 10034,7453 10021,7431 10009,7407 9996,7379 9985,7348 9974,7314 9966,7277 9959,7237 9955,7193 9953,7146 9953,7135 9955,7106 9960,7062 9968,7008 9983,6947 9993,6916 10005,6885 10019,6855 10036,6825 10055,6798 10077,6772 10082,6766 10099,6752 10126,6731 10163,6707 10185,6695 10209,6683 10236,6672 10264,6662 10295,6654 10327,6648 10361,6643 10397,6642 Z"/>
        </g>
       </g>
       <g class="com.sun.star.drawing.PolyPolygonShape">
        <g id="id20">
         <rect class="BoundingBox" stroke="none" fill="none" x="11004" y="7349" width="262" height="258"/>
         <path fill="rgb(0,0,0)" stroke="none" d="M 11004,7349 L 11265,7349 11265,7606 11004,7606 11004,7349 Z"/>
        </g>
       </g>
       <g class="com.sun.star.drawing.PolyPolygonShape">
        <g id="id21">
         <rect class="BoundingBox" stroke="none" fill="none" x="11425" y="6336" width="1114" height="1271"/>
         <path fill="rgb(0,0,0)" stroke="none" d="M 12262,6336 L 12538,6336 12105,7606 11854,7606 11425,6336 11708,6336 11984,7300 12262,6336 Z"/>
        </g>
       </g>
       <g class="com.sun.star.drawing.PolyPolygonShape">
        <g id="id22">
         <rect class="BoundingBox" stroke="none" fill="none" x="12508" y="7349" width="263" height="258"/>
         <path fill="rgb(0,0,0)" stroke="none" d="M 12509,7349 L 12770,7349 12770,7606 12509,7606 12509,7349 Z"/>
        </g>
       </g>
       <g class="com.sun.star.drawing.PolyPolygonShape">
        <g id="id23">
         <rect class="BoundingBox" stroke="none" fill="none" x="9561" y="8121" width="546" height="1251"/>
         <path fill="rgb(0,0,0)" stroke="none" d="M 9561,8510 L 9561,8343 9625,8339 9679,8334 9703,8331 9724,8327 9727,8326 9736,8324 9750,8319 9767,8313 9786,8304 9806,8292 9816,8286 9826,8278 9835,8270 9844,8262 9846,8260 9850,8255 9855,8248 9862,8238 9870,8225 9878,8210 9886,8192 9893,8172 9894,8166 9897,8153 9901,8137 9902,8129 9902,8125 9902,8122 10106,8122 10106,9371 9855,9371 9855,8510 9561,8510 Z"/>
        </g>
       </g>
       <g class="com.sun.star.drawing.PolyPolygonShape">
        <g id="id24">
         <rect class="BoundingBox" stroke="none" fill="none" x="10473" y="8112" width="869" height="1296"/>
         <path fill="rgb(0,0,0)" stroke="none" d="M 10473,8562 L 10473,8553 10475,8528 10479,8492 10487,8446 10501,8394 10511,8367 10522,8340 10535,8313 10551,8286 10568,8261 10589,8236 10594,8231 10610,8217 10635,8197 10670,8174 10691,8163 10713,8151 10738,8141 10765,8131 10793,8123 10824,8117 10856,8113 10890,8112 10902,8112 10936,8116 10986,8125 11015,8133 11046,8144 11078,8157 11111,8174 11143,8194 11175,8218 11205,8247 11234,8281 11259,8320 11281,8364 11284,8371 11290,8390 11300,8422 11311,8465 11322,8519 11332,8583 11339,8658 11341,8741 11340,8779 11334,8873 11327,8933 11317,8996 11303,9059 11294,9090 11284,9119 11278,9131 11262,9164 11233,9210 11214,9236 11192,9263 11166,9290 11136,9316 11103,9341 11066,9362 11025,9381 10981,9395 10932,9404 10879,9407 10872,9407 10855,9406 10828,9403 10794,9397 10755,9387 10713,9372 10691,9363 10669,9352 10648,9339 10626,9324 10621,9320 10609,9309 10590,9290 10568,9263 10557,9247 10546,9229 10535,9209 10525,9187 10516,9163 10508,9138 10502,9111 10498,9082 10743,9082 10743,9084 10745,9091 10747,9101 10752,9114 10758,9128 10762,9135 10766,9143 10771,9150 10776,9158 10782,9165 10789,9171 10791,9173 10796,9177 10804,9182 10816,9189 10830,9195 10839,9198 10848,9201 10857,9203 10868,9204 10878,9206 10890,9206 10895,9206 10910,9204 10920,9202 10931,9199 10943,9195 10957,9189 10971,9182 10985,9173 10999,9162 11013,9149 11026,9134 11039,9116 11050,9095 11060,9072 11062,9068 11065,9058 11069,9041 11075,9017 11080,8986 11086,8949 11091,8905 11094,8855 11088,8862 11072,8879 11062,8890 11050,8900 11036,8911 11023,8920 11019,8922 11010,8926 10995,8933 10975,8941 10951,8948 10922,8955 10889,8959 10853,8961 10846,8961 10828,8960 10800,8956 10764,8948 10723,8936 10701,8928 10678,8918 10656,8906 10633,8892 10610,8876 10588,8858 10583,8854 10570,8839 10552,8816 10531,8783 10520,8763 10510,8741 10500,8716 10491,8690 10484,8661 10478,8630 10474,8597 10473,8562 Z M 10906,8761 L 10909,8761 10915,8761 10925,8760 10937,8758 10952,8754 10968,8749 10976,8746 10985,8742 10993,8737 11002,8732 11005,8730 11015,8722 11021,8716 11028,8708 11036,8699 11044,8689 11051,8677 11059,8663 11066,8648 11072,8632 11078,8613 11082,8593 11084,8571 11085,8547 11085,8542 11085,8529 11083,8510 11079,8486 11073,8459 11069,8445 11065,8431 11059,8418 11052,8404 11045,8391 11036,8379 11034,8376 11027,8369 11016,8359 11000,8348 10991,8342 10981,8337 10970,8331 10958,8327 10945,8323 10931,8320 10916,8318 10900,8317 10897,8317 10890,8318 10878,8319 10863,8321 10846,8326 10837,8328 10828,8332 10819,8336 10810,8341 10801,8346 10793,8352 10790,8355 10782,8363 10776,8369 10770,8377 10764,8386 10757,8396 10751,8408 10744,8422 10738,8437 10733,8454 10728,8473 10725,8493 10723,8515 10722,8539 10723,8557 10724,8577 10728,8602 10733,8629 10737,8643 10741,8656 10746,8670 10752,8683 10759,8695 10767,8706 10769,8708 10776,8715 10786,8723 10793,8728 10801,8734 10811,8739 10821,8744 10832,8749 10845,8753 10859,8756 10873,8759 10889,8761 10906,8761 Z"/>
        </g>
       </g>
       <g class="com.sun.star.drawing.PolyPolygonShape">
        <g id="id25">
         <rect class="BoundingBox" stroke="none" fill="none" x="11455" y="8110" width="865" height="1295"/>
         <path fill="rgb(0,0,0)" stroke="none" d="M 11702,8976 L 11702,8980 11703,8992 11705,9011 11709,9034 11716,9060 11720,9074 11725,9088 11731,9101 11739,9115 11747,9128 11757,9140 11759,9143 11766,9150 11778,9160 11794,9172 11804,9178 11814,9184 11825,9189 11838,9194 11851,9198 11865,9201 11879,9203 11894,9204 11898,9204 11908,9203 11923,9201 11941,9196 11951,9193 11962,9189 11973,9184 11983,9178 11994,9171 12004,9163 12014,9153 12023,9142 12025,9139 12031,9131 12038,9118 12047,9099 12055,9076 12063,9049 12066,9034 12068,9018 12070,9001 12070,8983 12070,8978 12069,8965 12067,8945 12063,8921 12057,8894 12053,8880 12048,8866 12041,8852 12034,8839 12026,8826 12017,8815 12014,8812 12007,8806 11996,8797 11980,8786 11971,8781 11961,8775 11951,8770 11939,8766 11927,8762 11914,8759 11900,8758 11886,8757 11883,8757 11875,8757 11863,8759 11848,8762 11831,8766 11822,8769 11812,8773 11803,8777 11793,8782 11784,8788 11775,8795 11772,8797 11763,8805 11752,8819 11745,8828 11739,8838 11732,8850 11725,8864 11719,8878 11714,8895 11709,8913 11705,8932 11703,8953 11702,8976 Z M 12048,8436 L 12048,8435 12047,8431 12047,8425 12045,8417 12042,8407 12038,8396 12032,8383 12024,8370 12023,8368 12017,8361 12008,8352 12002,8346 11995,8341 11987,8335 11978,8330 11968,8325 11957,8321 11946,8317 11933,8314 11919,8312 11905,8312 11900,8312 11885,8314 11875,8316 11864,8319 11852,8323 11839,8328 11825,8335 11811,8344 11796,8355 11782,8368 11769,8384 11756,8402 11744,8422 11734,8446 11733,8449 11730,8460 11725,8477 11719,8501 11713,8532 11707,8569 11701,8614 11696,8665 11704,8656 11714,8646 11727,8634 11742,8622 11760,8608 11780,8596 11791,8590 11802,8585 11805,8584 11813,8582 11825,8578 11842,8573 11862,8568 11886,8564 11912,8562 11940,8560 11947,8561 11968,8562 11998,8566 12036,8575 12058,8581 12080,8588 12102,8597 12125,8608 12148,8621 12170,8636 12192,8653 12213,8673 12217,8678 12229,8694 12246,8718 12266,8752 12285,8793 12294,8817 12302,8843 12309,8870 12314,8899 12318,8930 12319,8962 12319,8970 12317,8991 12314,9024 12306,9066 12294,9114 12275,9166 12263,9192 12249,9219 12233,9245 12215,9270 12210,9276 12195,9291 12170,9312 12154,9325 12135,9337 12114,9349 12090,9361 12063,9373 12034,9383 12002,9391 11968,9398 11931,9402 11891,9404 11881,9403 11852,9401 11810,9393 11786,9387 11759,9379 11731,9369 11702,9356 11673,9340 11645,9321 11617,9298 11590,9272 11565,9241 11543,9206 11539,9199 11529,9179 11515,9145 11499,9099 11484,9042 11470,8974 11460,8896 11456,8809 11458,8726 11461,8650 11464,8612 11468,8576 11472,8549 11478,8520 11487,8483 11498,8441 11512,8397 11530,8353 11540,8331 11552,8311 11554,8307 11561,8296 11573,8279 11589,8259 11609,8235 11633,8211 11661,8187 11676,8176 11692,8165 11696,8163 11707,8157 11725,8148 11750,8138 11780,8127 11815,8119 11855,8112 11877,8111 11899,8110 11906,8110 11928,8111 11959,8115 11999,8121 12043,8132 12066,8139 12089,8148 12112,8158 12134,8170 12156,8183 12176,8199 12181,8203 12192,8215 12209,8235 12229,8262 12250,8296 12260,8316 12269,8337 12277,8360 12284,8384 12289,8409 12292,8436 12048,8436 Z"/>
        </g>
       </g>
       <g class="com.sun.star.drawing.PolyPolygonShape">
        <g id="id26">
         <rect class="BoundingBox" stroke="none" fill="none" x="12427" y="8138" width="886" height="1234"/>
         <path fill="rgb(0,0,0)" stroke="none" d="M 13312,8330 L 13302,8341 13273,8375 13225,8435 13159,8523 13143,8547 13102,8612 13048,8703 13021,8756 12995,8811 12986,8831 12963,8890 12932,8980 12900,9095 12893,9123 12879,9192 12864,9282 12859,9328 12858,9371 12603,9371 12604,9355 12608,9312 12617,9245 12634,9157 12661,9052 12700,8934 12754,8806 12823,8672 12846,8636 12902,8549 12976,8445 13014,8397 13050,8359 12427,8359 12430,8138 13312,8138 13312,8330 Z"/>
        </g>
       </g>
      </g>
      <g class="Group">
       <g class="com.sun.star.drawing.PolyPolygonShape">
        <g id="id27">
         <rect class="BoundingBox" stroke="none" fill="none" x="1234" y="7700" width="884" height="1281"/>
         <path fill="rgb(0,0,0)" stroke="none" d="M 1234,8034 L 1709,8980 1917,8875 1721,8484 2117,8285 2036,8124 1640,8323 1530,8104 1987,7875 1899,7700 1234,8034 Z"/>
        </g>
       </g>
       <g class="com.sun.star.drawing.PolyPolygonShape">
        <g id="id28">
         <rect class="BoundingBox" stroke="none" fill="none" x="2019" y="7345" width="1291" height="1241"/>
         <path fill="rgb(0,0,0)" stroke="none" d="M 2442,7962 L 2308,7696 2536,7582 2539,7580 2548,7576 2561,7571 2578,7565 2597,7560 2607,7558 2618,7557 2628,7556 2639,7556 2649,7557 2659,7559 2661,7560 2667,7562 2677,7567 2683,7570 2689,7574 2695,7579 2702,7585 2709,7591 2717,7599 2724,7608 2731,7618 2738,7629 2745,7641 2746,7644 2750,7653 2755,7666 2760,7683 2764,7702 2766,7712 2767,7722 2767,7733 2766,7743 2764,7753 2761,7762 2760,7764 2757,7771 2751,7780 2742,7792 2730,7805 2723,7812 2714,7819 2705,7827 2694,7834 2682,7841 2670,7848 2442,7962 Z M 2019,7639 L 2494,8585 2702,8480 2517,8111 2724,8006 2728,8005 2737,8000 2752,7995 2770,7989 2790,7984 2801,7982 2812,7980 2823,7980 2834,7980 2844,7981 2854,7984 2857,7985 2863,7988 2873,7993 2886,8001 2901,8013 2918,8028 2936,8047 2954,8070 2977,8104 3000,8140 3026,8183 3032,8193 3048,8218 3060,8233 3072,8249 3086,8265 3101,8280 3309,8175 3305,8173 3300,8170 3294,8166 3287,8161 3279,8154 3271,8147 3263,8138 3259,8133 3249,8122 3236,8104 3222,8083 3210,8064 3198,8045 3186,8023 3156,7971 3153,7966 3143,7950 3128,7929 3111,7905 3106,7900 3094,7886 3086,7878 3076,7869 3066,7860 3054,7851 3049,7847 3043,7844 3034,7839 3024,7834 3013,7829 3001,7824 2987,7820 2986,7820 2981,7819 2974,7818 2964,7817 2952,7816 2938,7816 2924,7817 2908,7820 2906,7817 2909,7814 2916,7804 2927,7790 2938,7771 2951,7749 2956,7736 2962,7723 2966,7710 2970,7696 2973,7681 2974,7667 2974,7663 2974,7653 2973,7637 2971,7617 2967,7593 2960,7565 2950,7536 2937,7505 2932,7496 2926,7486 2918,7473 2908,7458 2896,7443 2882,7428 2866,7413 2859,7407 2850,7400 2838,7392 2824,7383 2807,7374 2789,7366 2769,7358 2760,7356 2749,7353 2734,7350 2717,7348 2698,7346 2676,7345 2654,7346 2643,7347 2631,7349 2615,7352 2596,7357 2575,7364 2552,7372 2529,7383 2019,7639 Z"/>
        </g>
       </g>
       <g class="com.sun.star.drawing.PolyPolygonShape">
        <g id="id29">
         <rect class="BoundingBox" stroke="none" fill="none" x="2975" y="7054" width="684" height="1051"/>
         <path fill="rgb(0,0,0)" stroke="none" d="M 2975,7159 L 3450,8104 3658,7999 3183,7054 2975,7159 Z"/>
        </g>
       </g>
       <g class="com.sun.star.drawing.PolyPolygonShape">
        <g id="id30">
         <rect class="BoundingBox" stroke="none" fill="none" x="3366" y="6606" width="1194" height="1302"/>
         <path fill="rgb(0,0,0)" stroke="none" d="M 3366,6962 L 3841,7907 4559,7546 4471,7371 3961,7628 3845,7396 4303,7166 4222,7004 3764,7234 3662,7032 4161,6781 4073,6606 3366,6962 Z"/>
        </g>
       </g>
       <g class="com.sun.star.drawing.PolyPolygonShape">
        <g id="id31">
         <rect class="BoundingBox" stroke="none" fill="none" x="4224" y="6267" width="1149" height="1210"/>
         <path fill="rgb(0,0,0)" stroke="none" d="M 4819,7197 L 4520,6601 4668,6526 4681,6520 4696,6514 4714,6507 4736,6499 4760,6492 4784,6486 4796,6485 4808,6483 4811,6483 4819,6483 4831,6483 4846,6484 4864,6486 4884,6490 4904,6496 4914,6500 4924,6504 4926,6505 4933,6509 4943,6515 4955,6523 4970,6533 4986,6546 5003,6562 5019,6580 5026,6589 5045,6614 5057,6632 5070,6652 5084,6676 5098,6702 5104,6715 5119,6749 5127,6771 5134,6795 5141,6819 5145,6844 5146,6855 5146,6867 5146,6882 5146,6900 5144,6920 5141,6939 5139,6949 5136,6959 5133,6967 5129,6977 5124,6988 5116,7002 5108,7016 5097,7031 5091,7038 5085,7045 5079,7051 5071,7058 5062,7066 5050,7075 5036,7085 5021,7095 5005,7104 4819,7197 Z M 4224,6531 L 4699,7476 5107,7271 5125,7261 5145,7250 5169,7234 5197,7215 5225,7193 5253,7167 5265,7154 5278,7140 5288,7126 5298,7111 5311,7090 5325,7065 5339,7037 5351,7006 5357,6989 5361,6972 5364,6957 5367,6938 5370,6915 5372,6886 5372,6854 5370,6818 5365,6781 5362,6764 5350,6718 5341,6687 5329,6653 5314,6616 5296,6577 5285,6558 5257,6509 5237,6479 5214,6448 5188,6417 5160,6388 5147,6377 5131,6364 5111,6349 5087,6333 5059,6316 5029,6301 5013,6294 4997,6288 4982,6284 4964,6279 4942,6275 4915,6271 4884,6268 4851,6267 4817,6269 4801,6272 4782,6275 4758,6280 4730,6288 4699,6297 4666,6310 4632,6326 4224,6531 Z"/>
        </g>
       </g>
       <g class="com.sun.star.drawing.PolyPolygonShape">
        <g id="id32">
         <rect class="BoundingBox" stroke="none" fill="none" x="5205" y="5743" width="1291" height="1241"/>
         <path fill="rgb(0,0,0)" stroke="none" d="M 5628,6360 L 5494,6094 5722,5980 5725,5978 5734,5974 5747,5969 5764,5963 5783,5958 5793,5956 5804,5955 5814,5954 5825,5954 5835,5955 5845,5957 5847,5958 5853,5960 5863,5965 5869,5968 5875,5972 5881,5977 5888,5983 5895,5989 5903,5997 5910,6006 5917,6016 5924,6027 5931,6039 5932,6042 5936,6051 5941,6064 5946,6081 5950,6100 5952,6110 5953,6120 5953,6131 5952,6141 5950,6151 5947,6160 5946,6162 5943,6169 5937,6178 5928,6190 5916,6203 5909,6210 5900,6217 5891,6225 5880,6232 5868,6239 5856,6246 5628,6360 Z M 5205,6037 L 5680,6983 5888,6878 5703,6509 5910,6404 5914,6403 5923,6398 5938,6393 5956,6387 5976,6382 5987,6380 5998,6378 6009,6378 6020,6378 6030,6379 6040,6382 6043,6383 6049,6386 6059,6391 6072,6399 6087,6411 6104,6426 6122,6445 6140,6468 6163,6502 6186,6538 6212,6581 6218,6591 6234,6616 6246,6631 6258,6647 6272,6663 6287,6678 6495,6573 6491,6571 6486,6568 6480,6564 6473,6559 6465,6552 6457,6545 6449,6536 6445,6531 6435,6520 6422,6502 6408,6481 6396,6462 6384,6443 6372,6421 6342,6369 6339,6364 6329,6348 6314,6327 6297,6303 6292,6298 6280,6284 6272,6276 6262,6267 6252,6258 6240,6249 6235,6245 6229,6242 6220,6237 6210,6232 6199,6227 6187,6222 6173,6218 6172,6218 6167,6217 6160,6216 6150,6215 6138,6214 6124,6214 6110,6215 6094,6218 6092,6215 6095,6212 6102,6202 6113,6188 6124,6169 6137,6147 6142,6134 6148,6121 6152,6108 6156,6094 6159,6079 6160,6065 6160,6061 6160,6051 6159,6035 6157,6015 6153,5991 6146,5963 6136,5934 6123,5903 6118,5894 6112,5884 6104,5871 6094,5856 6082,5841 6068,5826 6052,5811 6045,5805 6036,5798 6024,5790 6010,5781 5993,5772 5975,5764 5955,5756 5946,5754 5935,5751 5920,5748 5903,5746 5884,5744 5862,5743 5840,5744 5829,5745 5817,5747 5801,5750 5782,5755 5761,5762 5738,5770 5715,5781 5205,6037 Z"/>
        </g>
       </g>
       <g class="com.sun.star.drawing.PolyPolygonShape">
        <g id="id33">
         <rect class="BoundingBox" stroke="none" fill="none" x="6161" y="5452" width="684" height="1051"/>
         <path fill="rgb(0,0,0)" stroke="none" d="M 6161,5557 L 6636,6502 6844,6397 6369,5452 6161,5557 Z"/>
        </g>
       </g>
       <g class="com.sun.star.drawing.PolyPolygonShape">
        <g id="id34">
         <rect class="BoundingBox" stroke="none" fill="none" x="6679" y="5067" width="1045" height="1108"/>
         <path fill="rgb(0,0,0)" stroke="none" d="M 7341,5361 L 7543,5260 7534,5247 7523,5233 7509,5215 7492,5196 7471,5175 7449,5155 7424,5137 7413,5129 7399,5121 7381,5112 7359,5102 7335,5092 7308,5083 7280,5076 7267,5074 7252,5072 7232,5070 7208,5068 7181,5068 7153,5069 7123,5073 7109,5075 7073,5084 7048,5091 7022,5100 6993,5111 6964,5125 6946,5134 6926,5146 6901,5162 6873,5182 6844,5205 6815,5232 6801,5246 6788,5261 6777,5275 6765,5292 6751,5314 6735,5341 6720,5371 6706,5405 6695,5441 6691,5458 6687,5477 6684,5503 6681,5533 6679,5568 6680,5605 6683,5645 6686,5663 6690,5684 6697,5711 6705,5744 6717,5779 6732,5818 6750,5857 6759,5875 6786,5918 6804,5946 6826,5975 6851,6005 6879,6034 6892,6046 6908,6059 6929,6075 6954,6093 6983,6111 7014,6129 7048,6144 7053,6145 7065,6149 7083,6155 7108,6161 7138,6167 7171,6172 7208,6174 7247,6174 7252,6174 7265,6172 7286,6169 7313,6164 7346,6157 7382,6146 7421,6132 7461,6114 7476,6106 7512,6084 7535,6068 7560,6050 7585,6029 7608,6006 7618,5995 7628,5982 7641,5965 7656,5944 7671,5921 7684,5894 7697,5866 7701,5852 7706,5837 7711,5816 7716,5791 7720,5763 7722,5732 7723,5700 7722,5685 7720,5667 7717,5644 7712,5617 7705,5587 7695,5554 7683,5519 7482,5620 7483,5625 7487,5638 7492,5657 7497,5682 7501,5710 7502,5742 7502,5758 7500,5774 7497,5791 7494,5807 7492,5811 7488,5821 7481,5836 7470,5856 7462,5866 7454,5877 7444,5888 7433,5899 7420,5910 7406,5921 7391,5931 7374,5940 7362,5946 7348,5951 7331,5957 7311,5964 7288,5969 7265,5972 7253,5973 7241,5973 7238,5973 7231,5972 7219,5971 7203,5968 7185,5964 7166,5958 7146,5951 7135,5946 7125,5941 7116,5935 7106,5929 7094,5920 7079,5908 7063,5895 7046,5879 7030,5862 7023,5853 7005,5830 6994,5813 6982,5795 6970,5775 6958,5753 6953,5742 6940,5714 6925,5673 6918,5650 6911,5625 6909,5614 6907,5602 6905,5585 6903,5566 6901,5545 6902,5522 6903,5499 6904,5496 6905,5489 6908,5477 6912,5462 6917,5445 6925,5426 6934,5406 6940,5396 6946,5386 6948,5384 6953,5378 6961,5368 6973,5356 6987,5342 7006,5328 7027,5313 7052,5299 7058,5296 7066,5293 7076,5289 7088,5285 7102,5281 7116,5277 7131,5275 7139,5274 7157,5273 7169,5274 7183,5274 7197,5276 7212,5278 7219,5280 7226,5282 7236,5285 7247,5289 7259,5294 7272,5300 7285,5307 7290,5311 7296,5316 7304,5322 7313,5329 7323,5339 7332,5349 7341,5361 Z"/>
        </g>
       </g>
       <g class="com.sun.star.drawing.PolyPolygonShape">
        <g id="id35">
         <rect class="BoundingBox" stroke="none" fill="none" x="7532" y="4465" width="1275" height="1348"/>
         <path fill="rgb(0,0,0)" stroke="none" d="M 7532,4867 L 8007,5812 8215,5707 8010,5300 8393,5107 8598,5515 8806,5410 8330,4465 8122,4570 8305,4932 7922,5125 7740,4762 7532,4867 Z"/>
        </g>
       </g>
       <g class="com.sun.star.drawing.PolyPolygonShape">
        <g id="id36">
         <rect class="BoundingBox" stroke="none" fill="none" x="8585" y="4121" width="1035" height="1113"/>
         <path fill="rgb(0,0,0)" stroke="none" d="M 8972,4933 L 8771,5034 8779,5049 8788,5064 8800,5084 8816,5106 8834,5128 8855,5150 8867,5160 8879,5169 8890,5177 8903,5185 8921,5194 8942,5204 8966,5214 8992,5223 9006,5226 9021,5229 9034,5230 9049,5232 9069,5233 9093,5233 9121,5232 9150,5229 9181,5224 9195,5220 9232,5210 9257,5202 9284,5192 9313,5180 9342,5167 9358,5158 9398,5135 9423,5119 9450,5101 9476,5080 9501,5059 9511,5048 9522,5036 9535,5021 9550,5002 9566,4981 9580,4958 9592,4934 9597,4923 9601,4910 9607,4893 9612,4872 9616,4850 9618,4826 9619,4813 9619,4800 9618,4789 9616,4775 9613,4758 9609,4738 9603,4715 9594,4691 9583,4667 9581,4664 9576,4654 9568,4640 9556,4623 9541,4604 9525,4586 9515,4577 9505,4568 9495,4561 9484,4554 9474,4548 9462,4542 9447,4536 9428,4529 9408,4522 9386,4516 9363,4512 9352,4512 9325,4510 9308,4510 9288,4511 9268,4512 9247,4515 9217,4521 9189,4527 9164,4533 9002,4568 8991,4570 8966,4575 8933,4580 8916,4581 8901,4582 8895,4582 8888,4582 8879,4581 8870,4580 8861,4578 8856,4577 8851,4575 8847,4573 8843,4571 8843,4571 8840,4569 8837,4566 8832,4562 8827,4556 8821,4550 8816,4541 8810,4532 8810,4530 8808,4527 8805,4521 8803,4513 8800,4504 8799,4495 8798,4490 8798,4485 8798,4480 8798,4475 8799,4470 8800,4465 8801,4459 8804,4451 8807,4442 8811,4434 8815,4425 8818,4421 8821,4416 8825,4411 8830,4404 8836,4397 8844,4390 8852,4383 8855,4380 8866,4373 8881,4363 8890,4357 8899,4353 8906,4349 8923,4342 8947,4332 8960,4328 8973,4324 8979,4322 8986,4321 8995,4319 9006,4318 9018,4317 9030,4316 9042,4317 9044,4317 9048,4318 9054,4319 9063,4321 9072,4324 9083,4328 9094,4334 9099,4337 9105,4340 9106,4341 9110,4344 9115,4349 9122,4356 9130,4364 9139,4375 9149,4387 9158,4402 9359,4300 9352,4287 9343,4272 9331,4254 9316,4234 9299,4213 9279,4194 9269,4185 9258,4176 9255,4175 9247,4170 9235,4163 9219,4154 9199,4145 9177,4137 9152,4129 9139,4126 9126,4124 9114,4123 9099,4122 9081,4121 9058,4121 9033,4123 9006,4126 8978,4131 8965,4135 8930,4145 8908,4153 8882,4162 8855,4173 8827,4186 8816,4192 8789,4208 8770,4220 8750,4234 8730,4250 8709,4267 8700,4276 8690,4286 8677,4300 8663,4316 8649,4335 8635,4355 8622,4378 8616,4388 8611,4401 8605,4417 8598,4436 8593,4458 8588,4483 8585,4508 8585,4511 8585,4520 8586,4534 8588,4552 8591,4573 8597,4597 8606,4623 8618,4650 8623,4661 8630,4672 8640,4687 8651,4703 8665,4719 8681,4735 8689,4742 8698,4748 8706,4754 8716,4759 8728,4766 8744,4774 8761,4781 8780,4787 8800,4792 8810,4794 8835,4797 8852,4798 8872,4798 8893,4798 8915,4797 8925,4795 8953,4792 8991,4786 9035,4777 9150,4752 9160,4750 9184,4745 9218,4739 9236,4737 9254,4735 9262,4734 9271,4734 9282,4734 9296,4735 9310,4736 9324,4739 9331,4740 9338,4742 9340,4743 9344,4745 9351,4748 9359,4753 9363,4756 9368,4759 9373,4764 9377,4768 9382,4773 9386,4779 9390,4785 9394,4792 9395,4794 9397,4798 9399,4805 9402,4814 9405,4824 9406,4830 9406,4836 9407,4842 9407,4848 9406,4854 9405,4860 9405,4862 9404,4866 9402,4872 9399,4880 9395,4889 9390,4899 9384,4910 9377,4920 9373,4925 9363,4936 9355,4944 9347,4952 9337,4960 9327,4968 9321,4971 9308,4980 9290,4991 9280,4997 9269,5002 9262,5006 9243,5014 9231,5019 9216,5024 9201,5029 9185,5033 9177,5034 9169,5035 9158,5036 9146,5037 9132,5038 9117,5037 9103,5036 9101,5035 9096,5034 9089,5032 9079,5030 9068,5025 9056,5020 9043,5013 9030,5005 9029,5004 9024,5000 9018,4995 9010,4987 9001,4977 8991,4964 8982,4950 8972,4933 Z"/>
        </g>
       </g>
       <g class="com.sun.star.drawing.PolyPolygonShape">
        <g id="id37">
         <rect class="BoundingBox" stroke="none" fill="none" x="9372" y="3539" width="1275" height="1348"/>
         <path fill="rgb(0,0,0)" stroke="none" d="M 9372,3941 L 9847,4886 10055,4781 9850,4374 10233,4181 10438,4589 10646,4484 10170,3539 9962,3644 10145,4006 9762,4199 9580,3836 9372,3941 Z"/>
        </g>
       </g>
       <g class="com.sun.star.drawing.PolyPolygonShape">
        <g id="id38">
         <rect class="BoundingBox" stroke="none" fill="none" x="10612" y="3211" width="1043" height="1233"/>
         <path fill="rgb(0,0,0)" stroke="none" d="M 10884,3908 L 10832,3499 10835,3498 11129,3785 10884,3908 Z M 10612,3318 L 10730,4443 10939,4338 10907,4090 11261,3913 11438,4087 11654,3979 10825,3211 10612,3318 Z"/>
        </g>
       </g>
       <g class="com.sun.star.drawing.PolyPolygonShape">
        <g id="id39">
         <rect class="BoundingBox" stroke="none" fill="none" x="11260" y="2657" width="884" height="1282"/>
         <path fill="rgb(0,0,0)" stroke="none" d="M 11260,2991 L 11735,3937 11943,3832 11747,3441 12143,3242 12062,3081 11666,3280 11556,3061 12013,2832 11925,2657 11260,2991 Z"/>
        </g>
       </g>
       <g class="com.sun.star.drawing.PolyPolygonShape">
        <g id="id40">
         <rect class="BoundingBox" stroke="none" fill="none" x="12046" y="2241" width="1194" height="1302"/>
         <path fill="rgb(0,0,0)" stroke="none" d="M 12046,2597 L 12521,3542 13239,3181 13151,3006 12641,3263 12525,3031 12983,2801 12902,2639 12444,2869 12342,2667 12841,2416 12753,2241 12046,2597 Z"/>
        </g>
       </g>
       <g class="com.sun.star.drawing.PolyPolygonShape">
        <g id="id41">
         <rect class="BoundingBox" stroke="none" fill="none" x="12903" y="1764" width="1275" height="1348"/>
         <path fill="rgb(0,0,0)" stroke="none" d="M 12903,2166 L 13378,3111 13573,3013 13255,2380 13257,2379 13969,2814 14177,2709 13701,1764 13507,1862 13826,2496 13823,2497 13110,2062 12903,2166 Z"/>
        </g>
       </g>
      </g>
     </g>
    </g>
   </g>
  </g>
 </g>
</svg>