<?xml version="1.0" standalone="no"?>
<!DOCTYPE svg PUBLIC "-//W3C//DTD SVG 20010904//EN"
 "http://www.w3.org/TR/2001/REC-SVG-20010904/DTD/svg10.dtd">
<svg version="1.0" xmlns="http://www.w3.org/2000/svg"
 width="543.000000pt" height="543.000000pt" viewBox="0 0 543.000000 543.000000"
 preserveAspectRatio="xMidYMid meet">
<metadata>
Created by potrace 1.11, written by Peter Selinger 2001-2013
</metadata>
<g transform="translate(0.000000,543.000000) scale(0.100000,-0.100000)"
fill="#000000" stroke="none">
<path d="M44 5365 c-44 -25 -43 -5 -40 -599 2 -490 5 -568 18 -583 30 -35 165
-239 198 -298 41 -76 58 -128 74 -235 14 -83 15 -338 3 -390 -4 -14 -9 -43
-12 -64 -3 -22 -12 -59 -20 -83 -8 -24 -15 -48 -15 -54 0 -12 -85 -184 -100
-202 -42 -50 -150 -214 -150 -227 0 -36 177 -367 281 -525 22 -33 42 -68 45
-78 4 -9 10 -17 15 -17 5 0 9 -6 9 -14 0 -8 3 -16 8 -18 7 -3 72 -95 72 -103
0 -3 6 -13 14 -22 8 -10 49 -65 92 -123 74 -101 218 -282 274 -345 15 -16 49
-55 76 -85 101 -114 404 -409 514 -500 23 -19 57 -48 74 -64 17 -16 47 -40 66
-55 19 -14 37 -29 40 -32 4 -6 67 -56 204 -161 56 -44 222 -154 306 -205 161
-96 337 -174 454 -199 11 -3 32 -8 46 -11 63 -16 254 -7 310 15 14 5 27 10 30
10 56 6 430 183 430 204 0 4 5 8 12 8 10 0 202 124 218 140 3 3 48 38 100 77
214 161 530 439 694 611 132 138 175 184 222 238 57 65 188 226 219 268 11 15
43 58 70 94 28 37 73 101 100 142 28 41 55 80 61 86 10 12 90 139 166 267 46
77 159 286 188 349 13 28 20 57 16 71 -3 12 -36 62 -74 110 -120 153 -184 283
-212 432 -15 76 -19 393 -7 460 13 69 34 129 70 201 32 67 102 183 116 194 3
3 19 25 36 50 16 25 40 58 53 74 l23 29 -4 563 -3 564 -22 23 -23 22 -2659 0
c-1754 0 -2665 -3 -2676 -10z"/>
</g>
</svg>
