<?xml version="1.0" standalone="no"?>
<!DOCTYPE svg PUBLIC "-//W3C//DTD SVG 20010904//EN"
 "http://www.w3.org/TR/2001/REC-SVG-20010904/DTD/svg10.dtd">
<svg version="1.0" xmlns="http://www.w3.org/2000/svg"
 width="543.000000pt" height="543.000000pt" viewBox="0 0 543.000000 543.000000"
 preserveAspectRatio="xMidYMid meet">
<metadata>
Created by potrace 1.14, written by Peter Selinger 2001-2017
</metadata>
<g transform="translate(0.000000,543.000000) scale(0.100000,-0.100000)"
fill="#000000" stroke="none">
<path d="M37 5362 c-15 -7 -29 -23 -32 -35 -3 -12 -3 -271 -2 -574 3 -479 6
-555 19 -570 30 -35 165 -239 198 -298 66 -121 89 -251 85 -466 -1 -81 -5
-151 -8 -155 -2 -5 -8 -33 -11 -62 -3 -30 -10 -61 -15 -70 -5 -10 -9 -19 -9
-22 -2 -57 -83 -214 -181 -350 -45 -63 -81 -121 -81 -130 0 -36 134 -289 254
-482 34 -54 65 -107 71 -118 5 -11 13 -20 17 -20 5 0 8 -6 8 -14 0 -8 3 -16 8
-18 7 -3 72 -95 72 -103 0 -3 6 -13 14 -22 8 -10 65 -85 126 -168 120 -159
165 -214 316 -385 101 -115 372 -379 503 -490 29 -25 67 -58 85 -74 17 -16 47
-41 66 -55 19 -14 41 -33 50 -41 9 -8 39 -33 68 -55 28 -21 52 -43 52 -47 0
-4 6 -8 13 -8 6 0 28 -14 47 -30 40 -35 255 -179 345 -232 140 -83 321 -161
429 -184 11 -3 32 -8 46 -11 35 -9 185 -9 240 -1 25 3 68 14 95 23 28 10 55
18 60 20 6 1 23 7 38 13 16 7 31 12 34 12 6 0 196 93 203 100 3 3 25 16 50 29
40 21 267 168 280 181 3 3 32 25 65 49 33 25 76 57 95 73 19 16 40 32 45 36
13 9 119 95 125 102 3 3 37 32 75 65 185 158 445 408 445 427 0 5 7 8 15 8 8
0 15 4 15 8 0 5 31 42 70 83 38 41 72 82 76 92 3 9 10 15 15 12 5 -4 9 0 9 9
0 8 4 16 9 18 8 3 122 140 178 214 153 202 260 362 409 609 62 102 194 363
194 382 0 22 -20 53 -105 163 -155 201 -199 344 -199 640 0 227 10 282 77 416
32 67 102 183 116 194 3 3 19 25 36 50 16 25 40 58 53 74 l23 29 -4 563 -3
564 -22 23 -23 22 -2657 0 c-2162 0 -2663 -2 -2685 -13z"/>
</g>
</svg>
